<?xml version="1.0" encoding="UTF-8" standalone="no"?>
<!DOCTYPE svg PUBLIC "-//W3C//DTD SVG 1.1//EN" "http://www.w3.org/Graphics/SVG/1.1/DTD/svg11.dtd">
<svg width="100%" height="100%" viewBox="0 0 62 76" version="1.1" xmlns="http://www.w3.org/2000/svg" xmlns:xlink="http://www.w3.org/1999/xlink" xml:space="preserve" xmlns:serif="http://www.serif.com/" style="fill-rule:evenodd;clip-rule:evenodd;stroke-linejoin:round;stroke-miterlimit:2;">
    <g transform="matrix(0.0130099,0,0,0.0130099,-3.46778e-14,8.88763e-13)">
        <g transform="matrix(4.16667,0,0,4.16667,1239.66,371.376)">
            <path d="M0,1216.6C-38.246,1215.53 -70.685,1182.75 -71.124,1144.86C-71.649,1098.51 -71.817,1052.15 -71.597,1005.78C-71.484,982.935 -69.67,981.285 -47.302,979.642C13.133,975.214 73.677,972.056 134.005,966.481C148.861,965.114 163.704,963.593 178.535,961.975C184.543,961.324 190.537,960.609 196.537,959.926C205.412,958.92 214.287,957.928 223.163,956.89C236.93,955.259 250.697,953.603 264.458,951.953C269.91,951.296 275.37,950.67 280.829,950.026C290.793,948.84 300.758,947.647 310.722,946.506C310.884,946.493 311.057,946.474 311.232,946.462C311.76,946.39 312.288,946.326 312.817,946.268C313.488,946.197 314.157,946.159 314.828,946.087C316.639,945.901 318.45,945.733 320.261,945.598C321.344,945.514 322.427,945.475 323.51,945.417C324.767,945.36 326.01,945.237 327.268,945.218C327.983,945.211 328.621,945.218 329.304,945.218C329.485,945.218 329.666,945.198 329.839,945.198C330.251,945.198 330.613,945.211 331.012,945.211C331.773,945.218 332.533,945.23 333.262,945.243C334.061,945.262 334.828,945.288 335.582,945.327C336.271,945.353 336.948,945.391 337.606,945.43C338.315,945.475 339.005,945.533 339.668,945.598C340.287,945.662 340.893,945.726 341.479,945.798C342.111,945.881 342.71,945.978 343.304,946.075C343.851,946.171 344.393,946.262 344.908,946.371C345.463,946.487 345.998,946.623 346.52,946.765C346.996,946.893 347.467,947.022 347.912,947.164C348.408,947.332 348.872,947.512 349.323,947.699C349.736,947.866 350.142,948.028 350.522,948.215C350.954,948.421 351.347,948.659 351.747,948.898C352.088,949.098 352.443,949.304 352.771,949.536C353.132,949.793 353.461,950.084 353.796,950.373C354.086,950.625 354.396,950.876 354.66,951.154C354.969,951.463 355.24,951.818 355.517,952.165C355.756,952.462 356.001,952.759 356.22,953.081C356.471,953.461 356.69,953.887 356.916,954.293C357.103,954.64 357.303,954.982 357.477,955.356C357.683,955.807 357.844,956.297 358.024,956.787C358.166,957.187 358.321,957.567 358.443,957.992C358.604,958.514 358.721,959.107 358.856,959.674C358.959,960.112 359.075,960.544 359.159,961.015C359.268,961.634 359.352,962.304 359.436,962.974C359.501,963.458 359.578,963.928 359.636,964.45C359.707,965.172 359.746,965.959 359.79,966.726C359.823,967.254 359.868,967.757 359.893,968.311C359.926,969.22 359.932,970.206 359.939,971.186C359.939,971.669 359.958,972.12 359.958,972.623C359.945,974.137 359.913,975.729 359.849,977.412C358.753,1007.14 356.98,1036.85 355.878,1066.58C355.814,1068.32 355.679,1070 355.485,1071.62C355.421,1072.16 355.304,1072.64 355.227,1073.16C355.06,1074.23 354.899,1075.32 354.673,1076.35C354.537,1076.95 354.332,1077.52 354.177,1078.11C353.932,1079.01 353.706,1079.91 353.41,1080.78C353.19,1081.39 352.907,1081.97 352.662,1082.58C352.333,1083.38 352.037,1084.18 351.657,1084.96C351.366,1085.55 350.993,1086.13 350.664,1086.71C350.251,1087.45 349.852,1088.21 349.375,1088.93C349.001,1089.51 348.537,1090.06 348.124,1090.63C347.609,1091.33 347.119,1092.04 346.546,1092.71C346.068,1093.29 345.514,1093.83 344.992,1094.39C344.38,1095.05 343.793,1095.71 343.123,1096.36C342.543,1096.91 341.885,1097.46 341.267,1098C340.648,1098.55 340.088,1099.09 339.424,1099.63C337.754,1100.98 336.091,1102.34 334.415,1103.69C329.298,1107.79 324.199,1111.91 319.185,1116.14C319.004,1116.28 318.824,1116.44 318.65,1116.58C299.069,1133.09 280.146,1150.42 261.126,1167.61C260.932,1167.78 260.732,1167.94 260.532,1168.12C259.695,1168.87 258.838,1169.58 257.993,1170.32C256.485,1171.62 254.971,1172.92 253.436,1174.17C252.482,1174.93 251.503,1175.68 250.536,1176.43C249.079,1177.55 247.61,1178.66 246.127,1179.72C245.096,1180.46 244.046,1181.16 243.008,1181.86C241.532,1182.85 240.037,1183.81 238.529,1184.73C237.446,1185.38 236.35,1186.03 235.248,1186.65C233.714,1187.52 232.141,1188.33 230.556,1189.13C229.44,1189.69 228.326,1190.25 227.185,1190.77C225.516,1191.53 223.807,1192.2 222.08,1192.87C220.965,1193.3 219.863,1193.76 218.729,1194.15C216.795,1194.82 214.797,1195.37 212.792,1195.92C211.8,1196.19 210.839,1196.51 209.821,1196.75C206.766,1197.47 203.627,1198.09 200.385,1198.52C159.032,1204.07 117.963,1211.67 86.999,1216.73C50.722,1216.73 25.343,1217.29 0,1216.6M-159.266,557.165C-170.288,557.165 -179.547,550.803 -182.953,541.999C-183.395,542.334 -183.891,542.618 -184.426,542.862C-187.178,544.11 -191.322,544.071 -198.528,542.321C-206.553,540.374 -213.365,540.916 -214.31,521.438C-212.051,505.303 -208.302,501.638 -204.725,493.811C-198.686,480.597 -188.251,472.151 -173.43,476.724C-159.257,481.1 -154.13,494.155 -153.404,507.89C-153.324,509.366 -154.255,510.971 -155.583,512.576C-143.453,514.171 -134.107,523.427 -134.107,534.706C-134.107,547.107 -145.374,557.165 -159.266,557.165M-132.264,1174.14C-132.1,1114.61 -132.377,1055.09 -131.836,995.575C-131.79,990.257 -126.489,980.273 -124.536,980.486C-115.561,981.504 -103.086,982.819 -99.061,988.84C-93.476,997.193 -93.231,1009.79 -92.664,1020.68C-91.739,1038.29 -92.412,1055.99 -92.412,1073.65C-91.555,1073.72 -90.692,1073.82 -89.828,1073.9C-92.941,1107.84 -95.219,1141.9 -99.673,1175.66C-101.091,1186.45 -101.819,1203.84 -117.501,1202.9C-132.767,1201.99 -132.303,1186.68 -132.264,1174.14M-120.721,887.97C-112.532,903.104 -104.933,917.142 -95.567,934.454C-118.114,936.755 -141.326,935.408 -149.279,962.259C-150.337,932.172 -150.337,932.172 -120.721,887.97M-38.075,485.157C-37.099,485.78 -36.078,486.511 -35.039,487.317C-33.509,488.438 -32.207,489.547 -31.128,490.643C-24.572,496.643 -18.269,504.722 -17.299,510.323C-9.774,517.803 -8.185,532.434 -14.302,546.498C-17.147,553.021 -21.221,558.399 -25.82,562.292C-25.491,562.266 -25.192,562.26 -24.856,562.228C-31.659,579.294 -39.355,592.962 -56.293,590.442C-73.228,587.928 -86.969,577.612 -91.894,559.594C-98.822,534.277 -91.952,511.203 -76.918,491.093C-67.492,478.487 -50.457,477.265 -38.075,485.157M-262.659,585.208C-258.073,572.575 -248.669,565.17 -234.967,565.376C-200.626,565.891 -166.296,567.184 -131.948,567.612C-119.844,567.764 -115.712,574.999 -110.511,584.464C-85.571,629.809 -43.177,631.099 -14.389,588.073C-11.92,584.39 -8.237,580.951 -7.312,576.9C-0.119,545.238 23.213,545.376 48.495,546.888C100.373,549.978 152.306,552.095 204.213,554.638C208.635,554.854 215.235,553.475 217.091,555.811C232.328,574.866 252.251,555.408 269.331,562.26C272.882,563.684 284.213,553.516 287.384,546.591C295.357,529.153 309.594,519.869 324.844,510.404C352.843,493.034 371.205,504.313 386.126,527.377C404.005,555.018 405.32,583.98 398.907,612.968C398.772,613.616 398.591,614.254 398.449,614.896C396.335,623.951 393.525,633.007 390.219,642.02C385.61,654.566 379.255,665.794 371.637,676.016C370.096,678.091 368.408,680.051 366.758,682.049C354.899,696.409 340.661,708.823 325.36,720.115C321.635,722.867 317.793,725.09 313.874,726.915C308.873,729.248 303.723,730.865 298.425,731.555C289.124,732.767 279.392,731.343 269.273,726.824C264.755,724.807 258.019,727.733 252.302,728.39C255.325,733.727 257.026,741.629 261.583,743.982C285.289,756.241 310.316,753.882 330.638,738.787C353.532,721.79 374.608,701.514 393.203,679.851C404.005,667.273 412.835,657.695 430.56,657.84C438.946,657.914 447.215,651.882 455.851,650.396C461.291,649.458 467.304,651.807 473.06,652.687C471.881,658.936 472.893,667.583 469.142,671.034C451.243,687.495 431.456,701.887 413.435,718.233C365.971,761.281 317.039,803.04 282.807,858.495C272.83,874.661 264.929,890.754 264.316,910.812C263.607,933.925 260.243,936.568 236.795,938.682C188.648,943.032 140.402,946.313 86.758,950.451C95.165,933.435 101.653,920.307 108.127,907.196C90.989,909.201 86.745,912.682 75.127,930.29C70.132,937.857 63.374,944.264 57.418,951.193C45.236,940.603 57.796,931.811 60.061,922.691C63.922,907.151 69.649,892.082 74.624,876.813C71.563,874.435 71.55,874.429 68.488,872.044C45.421,887.957 36.649,913.577 32.51,938.998C30.109,953.771 26.22,957.915 12.975,958.101C5.333,958.199 -2.253,960.551 -9.919,961.292C-22.426,962.491 -32.749,960.673 -40.492,947.957C-57.083,920.706 -76.264,895.015 -92.58,867.61C-98.954,856.897 -103.817,842.576 -81.333,840.494C-76.409,840.043 -70.264,832.915 -67.988,827.474C-61.237,811.335 -52.919,794.848 -51.118,777.878C-48.146,749.789 -47.189,720.927 -50.483,692.987C-52.432,676.48 -61.691,659.22 -72.065,645.678C-90.144,622.075 -111.955,618.53 -138.78,633.316C-167.536,649.161 -197.339,651.959 -228.573,645.63C-258.569,639.552 -273.01,613.741 -262.659,585.208M326.726,917.625C312.437,930.593 312.437,930.593 293.236,928.099C293.288,925.856 293.339,923.612 293.385,921.363C303.329,920.248 313.281,919.133 326.726,917.625M534.599,1305.33C535.222,1292.03 477.688,1160 475.071,1148.34C469.09,1121.63 459.396,1095.61 449.496,1069.99C443.638,1054.81 430.96,1048.96 414.26,1053.04C403.032,1055.77 391.541,1057.4 380.164,1059.53C378.269,1047.68 375.762,1035.88 374.692,1023.95C373.803,1013.92 375.568,1003.68 375.272,993.576C374.602,970.799 375.479,948.073 376.258,925.301C376.748,911.032 369.388,904.483 356.226,903.432C348.518,902.814 340.764,902.266 333.036,902.33C298.915,902.607 297.135,900.39 309.51,867.545C312.972,858.36 317.213,848.77 323.529,841.487C391.901,762.622 460.769,684.208 564.378,657.286C578.422,666.103 590.088,677.786 603.482,680.334C612.692,682.091 626.053,665.007 634.425,667.386C646.046,670.686 656.288,677.231 667.271,669.439C678.311,661.604 687.921,651.762 698.717,642.311C703.132,646.329 707.477,650.561 712.136,654.395C723.867,664.018 740.805,661.063 750.273,649.216C753.702,644.924 759.071,640.647 759.561,635.955C761.391,618.415 770.428,609.233 786.793,603.113C799.457,598.376 804.046,589.175 795.113,574.141C783.035,553.819 785.232,553.052 804.988,541.541C813.753,536.433 820.469,527.816 828.12,520.793C820.895,513.368 814.875,503.433 806.103,499.182C796.596,494.584 791.948,492.611 789.629,479.74C786.767,463.801 774.501,449.29 765.014,435.013C762.777,431.652 755.256,430.173 750.396,430.563C741.682,431.255 733.096,433.843 724.543,435.977C712.053,439.089 699.594,439.479 690.686,428.999C677.57,413.557 664.048,416.718 649.249,425.448C644.873,428.03 640.239,430.247 635.347,431.607C614.774,437.321 599.279,431.349 595.715,416.995C589.946,393.743 602.824,371.507 622.76,367.202C644.287,362.552 665.879,357.318 686.504,349.773C708.115,341.865 723.054,324.956 732.819,304.379C742.777,283.377 736.081,270.532 713.535,272.224C661.509,276.117 616.668,252.469 569.16,238.789C552.177,233.897 546.479,223.903 549.083,206.917C551.919,188.364 554.838,169.659 555.386,150.949C557.881,66.441 510.237,-15.141 428.072,-48.511C380.596,-67.789 332.153,-82.671 281.035,-86.104C214.732,-90.561 148.481,-94.334 85.378,-64.714C8.347,-28.553 -42.445,28.208 -60.534,112.403C-63.089,124.284 -65.294,136.237 -67.763,148.129C-70.105,159.457 -76.647,165.744 -88.716,164.742C-97.501,164.016 -106.286,163.143 -115.039,162.064C-156.776,156.888 -197.432,147.781 -236.259,130.891C-249.987,124.916 -258.828,129.96 -259.408,143.978C-260.51,170.491 -259.333,195.45 -241.032,219.115C-215.979,251.505 -185.296,266.936 -145.628,267.074C-149.953,280.329 -153.205,294.064 -158.98,306.642C-175.087,341.746 -176.266,379.406 -178.999,416.744C-179.086,417.853 -178.815,418.98 -178.374,420.121C-176.821,424.143 -172.702,428.345 -170.333,432.425C-164.616,428.287 -156.005,425.284 -153.839,419.754C-150.343,410.824 -151.465,400.17 -149.94,390.35C-147.984,377.782 -145.339,365.323 -141.88,346.941C-136.892,357.199 -134.304,360.953 -133.214,365.104C-131.187,372.793 -129.518,382.629 -119.435,378.7C-114.591,376.818 -109.486,366.325 -110.405,360.695C-112.867,345.655 -117.169,330.56 -123.176,316.522C-136.402,285.601 -115.664,247.941 -82.819,248.218C-46.38,248.521 -9.874,250.713 26.42,254.074C62.732,257.425 98.794,263.393 135.01,267.918C173.328,272.711 211.735,276.829 250.026,281.821C311.335,289.819 372.475,299.223 433.899,306.258C478.101,311.321 521.877,316.629 560.188,341.523C565.725,345.12 572.312,352.478 572.357,358.15C572.499,376.767 572.054,395.941 567.71,413.904C562.244,436.55 536.515,444.311 522.412,426.663C507.407,407.898 493.757,409.641 476.715,419.515C465.274,426.147 453.479,430.491 444.894,416.618C433.396,398.046 417.799,398.739 401.898,407.14C381.46,417.94 364.953,415.007 347.815,400.005C335.376,389.129 319.069,385.765 304.832,396.605C285.637,411.239 265.637,425.889 250.233,444.12C236.311,460.601 226.669,480.9 230.272,505.196C234.294,532.289 233.172,532.956 205.715,531.912C148.275,529.736 90.883,526.137 33.429,524.938C16.058,524.574 8.031,518.857 2.975,502.643C-5.484,475.47 -25.774,460.968 -53.969,459.631C-78.984,458.448 -96.254,473.556 -108.503,504.716C-113.628,517.765 -118.391,530.948 -123.314,544.071C-127.771,526.436 -127.082,509.936 -130.376,494.275C-136.099,467.05 -158.164,452.238 -180.562,455.261C-190.265,456.573 -200.033,461.187 -208.567,469.676C-221.432,482.473 -232.096,499.856 -237.397,517.123C-238.531,548.254 -224.513,538.863 -259.327,545.734C-307.428,573.526 -313.084,637.486 -259.069,662.784C-252.272,665.964 -246.417,671.16 -239.298,675.977C-247.165,689.377 -256.768,700.856 -261.038,714.063C-268.753,737.93 -276.23,762.59 -278.263,787.372C-280.039,809.028 -263.855,823.498 -247.303,822.595C-216.192,820.894 -207.532,834.139 -216.64,866.262C-221.174,882.266 -223.964,898.708 -225.318,915.285C-226.868,934.337 -232.241,954.035 -216.672,971.875C-211.886,977.354 -214.29,990.902 -216.256,1000.15C-222.943,1031.53 -231.344,1062.54 -237.951,1093.93C-238.999,1098.93 -234.203,1105.16 -232.102,1110.82C-227.271,1108.87 -220.942,1108.21 -217.919,1104.69C-212.27,1098.13 -207.01,1090.42 -204.31,1082.3C-198.396,1064.51 -194.239,1046.15 -189.263,1028.06C-184.999,1012.57 -181.957,996.245 -161.429,985.237C-158.599,1012.54 -153.675,1036.38 -154.217,1060.1C-155.148,1100.95 -161.094,1141.7 -161.674,1182.54C-161.938,1201.21 -226.179,1289.92 -235.486,1305.33C-227.168,1310.17 -192.895,1306.06 -184.355,1310.54C-178.519,1301.58 -137.536,1227.79 -128.912,1223.28C-113.37,1215.15 -95.068,1212.29 -73.689,1205.92C-92.996,1223.45 -120.57,1283.81 -126.925,1305.33C-115.06,1310.43 -81.249,1304.97 -69.019,1309.37C-63.005,1298.12 -58.491,1258.21 -54.166,1246.34C-49.625,1233.9 -42.986,1232.22 -32.091,1232.33C-4.408,1232.62 23.297,1231.4 50.951,1232.21C94.308,1233.49 137.14,1231.13 179.283,1219.92C183.788,1218.72 189.138,1220.68 200.985,1221.86C170.446,1253.27 146.501,1272.3 115.17,1304.53C120.291,1304.53 127.292,1305.27 131.446,1305.3C141.594,1305.37 147.115,1305.29 154.762,1305.24C165.78,1305.17 169.946,1312.78 176.273,1312.24C195.232,1310.65 198.377,1321.11 216.327,1297.83C240.626,1266.33 272.921,1231.12 302.717,1204.73C325.746,1184.32 351.212,1166.65 375.51,1147.66C389.413,1136.8 403.916,1126.53 416.696,1114.47C425.481,1106.18 422.368,1099.52 409.935,1097.46C404.315,1096.52 394.743,1102.3 396.722,1090.32C397.599,1085 403.438,1080.5 407.022,1075.63C411.675,1079.61 418.643,1082.71 420.531,1087.72C425.552,1101.08 426.054,1116.47 432.532,1128.88C452.358,1166.85 440.75,1197.91 413.564,1226.9C410.322,1230.35 405.99,1232.55 403.077,1236.27C392.855,1249.34 381.226,1250.66 371.159,1263.85C387.452,1257.66 400.044,1252.14 415.659,1244.66C421.115,1242.05 437.204,1218.32 439.62,1214.19C441.895,1210.29 477.023,1308.68 480.21,1305.33" style="fill-rule:nonzero;"/>
        </g>
        <g transform="matrix(4.16667,0,0,4.16667,591.383,2691.51)">
            <path d="M0,-44.26C-1.215,-44.418 -2.42,-44.589 -3.683,-44.589C-17.577,-44.589 -28.843,-34.537 -28.843,-22.13C-28.843,-19.761 -28.321,-17.521 -27.554,-15.385C-27.496,-15.201 -27.434,-15.014 -27.37,-14.837C-23.964,-6.033 -14.698,0.329 -3.683,0.329C10.209,0.329 21.476,-9.723 21.476,-22.13C21.476,-33.409 12.137,-42.655 0,-44.26" style="fill-rule:nonzero;"/>
        </g>
        <g transform="matrix(4.16667,0,0,4.16667,1146.4,2728.55)">
            <path d="M0,-59.033C-11.795,-64.167 -27.306,-54.669 -34.643,-37.821C-41.975,-20.97 -38.359,-3.146 -26.564,1.991C-19.339,5.134 -10.732,2.742 -3.451,-3.423L-3.445,-3.423C1.16,-7.322 5.234,-12.7 8.079,-19.223C14.196,-33.287 12.607,-47.918 5.082,-55.398C3.59,-56.88 1.953,-58.182 0,-59.033" style="fill-rule:nonzero;"/>
        </g>
        <g transform="matrix(4.16667,0,0,4.16667,2495.59,2946.22)">
            <path d="M0,13.403C13.638,20.637 16.281,30.041 8.024,43.09C2.907,51.162 -3.719,58.284 -10.313,66.66C14.496,70.283 24.711,63.67 38.027,37.408C53.019,7.834 26.96,-2.015 8.836,-16.269C17.905,-24.805 24.84,-31.318 34.173,-40.097C40.019,-29.259 43.886,-20.361 49.391,-12.62C52.059,-8.872 58.394,-4.635 61.965,-5.447C66.103,-6.391 72.284,-13.029 71.871,-16.526C70.673,-26.784 69.474,-39.706 62.919,-45.93C56.364,-52.14 39.793,-56.88 33.786,-52.913C13.902,-39.8 -3.468,-22.759 -20.876,-6.259C-22.507,-4.712 -18.982,5.127 -15.392,8.495C-11.859,11.808 -4.725,10.896 0,13.403" style="fill-rule:nonzero;stroke:white;stroke-width:18.45px;"/>
        </g>
    </g>
</svg>
